<svg xmlns="http://www.w3.org/2000/svg" viewBox="0 0 64 64">
  <defs>
    <linearGradient id="a" x1="8" x2="54" y1="6" y2="58" gradientUnits="userSpaceOnUse">
      <stop offset="0" stop-color="#5d92ff"/>
      <stop offset="1" stop-color="#0b1a3b"/>
    </linearGradient>
  </defs>
  <rect width="64" height="64" rx="18" fill="#050814"/>
  <rect x="6" y="6" width="52" height="52" rx="14" fill="url(#a)" opacity=".18"/>
  <path fill="#f1f5ff" d="M20 18h9v21.5c0 4.4-2.4 7.5-7.7 7.5-2.1 0-4.3-.5-5.8-1.4l2-6.8c.8.5 1.9.9 3 .9 1.6 0 2.5-.8 2.5-2.7V18Zm16.7 0H46c7.2 0 12 4.4 12 11.5S53.2 41 46.2 41h-9.5V18Zm9 15.8c2.8 0 4.6-1.4 4.6-4.3 0-2.9-1.8-4.2-4.6-4.2h-.2v8.5h.2Z"/>
</svg>

